<svg width="44" height="50" viewBox="0 0 44 50" fill="none" xmlns="http://www.w3.org/2000/svg">
<path d="M0 0.6008C0 0.934575 0.848735 10.7254 1.89849 22.3633C2.92589 33.9788 3.81929 43.8363 3.84163 44.259L3.90863 45.0155L12.9543 47.5077L21.9778 50L23.7868 49.5105C24.7697 49.2435 28.8122 48.1308 32.7878 47.0405C38.9522 45.3493 40.0021 44.9933 40.0914 44.615C40.2031 44.081 44 1.2016 44 0.48955V0H0V0.6008ZM35.8923 10.0578C35.803 10.5919 35.2223 16.9114 34.597 24.1432C33.9493 31.353 33.4133 37.3165 33.3687 37.361C33.2791 37.4723 22.3128 40.4985 22.0001 40.4985C21.7768 40.4985 15.7909 38.874 11.7036 37.717L10.5645 37.3833L10.2965 34.446C10.1625 32.8215 9.98377 30.8633 9.89443 30.0845L9.76041 28.705H12.5523C15.7015 28.705 15.6122 28.6605 15.6345 30.5962C15.6345 31.086 15.7015 31.8425 15.7686 32.2875L15.9026 33.0885L18.9625 33.8897L22.0001 34.6908L25.0153 33.8897C26.668 33.4445 28.0529 33.0662 28.0529 33.0662C28.0752 33.044 28.2092 31.7313 28.3432 30.1513C28.4772 28.5492 28.6335 26.9915 28.7005 26.6355L28.8122 26.0348H9.64874L9.53705 25.523C9.47005 25.256 9.33606 23.9653 9.24672 22.6303L9.09037 20.2493H29.2142L29.3482 18.7361C29.4375 17.9128 29.5715 16.6444 29.6385 15.9324C29.7279 15.02 29.7055 14.664 29.5269 14.7752C29.3929 14.842 24.6357 14.842 18.9179 14.753L8.53199 14.6195L8.39799 13.0396C8.30863 12.1718 8.19697 10.9257 8.12997 10.2804L7.99594 9.12328H36.004L35.8923 10.0578Z" fill="#CCD6F6"/>
</svg>
