<svg width="35" height="50" viewBox="0 0 35 50" fill="none" xmlns="http://www.w3.org/2000/svg">
<path d="M2.1875 9.78265C2.1875 7.76469 2.99414 5.82939 4.42996 4.40249C5.86579 2.97558 7.81319 2.17395 9.84375 2.17395H17.5V17.3913H9.84375C7.81319 17.3913 5.86579 16.5897 4.42996 15.1628C2.99414 13.7359 2.1875 11.8006 2.1875 9.78265Z" stroke="#CCD6F6" stroke-width="2" stroke-linecap="round" stroke-linejoin="round"/>
<path d="M17.5 2.17395H25.1562C26.1617 2.17395 27.1573 2.37075 28.0862 2.75313C29.0151 3.1355 29.8591 3.69595 30.57 4.40249C31.281 5.10902 31.8449 5.94779 32.2297 6.87092C32.6145 7.79405 32.8125 8.78346 32.8125 9.78265C32.8125 10.7818 32.6145 11.7712 32.2297 12.6944C31.8449 13.6175 31.281 14.4563 30.57 15.1628C29.8591 15.8693 29.0151 16.4298 28.0862 16.8122C27.1573 17.1945 26.1617 17.3913 25.1562 17.3913H17.5V2.17395Z" stroke="#CCD6F6" stroke-width="2" stroke-linecap="round" stroke-linejoin="round"/>
<path d="M17.5 25.0001C17.5 24.0009 17.698 23.0115 18.0828 22.0883C18.4676 21.1652 19.0315 20.3264 19.7425 19.6199C20.4534 18.9134 21.2974 18.3529 22.2263 17.9705C23.1552 17.5882 24.1508 17.3914 25.1562 17.3914C26.1617 17.3914 27.1573 17.5882 28.0862 17.9705C29.0151 18.3529 29.8591 18.9134 30.57 19.6199C31.281 20.3264 31.8449 21.1652 32.2297 22.0883C32.6145 23.0115 32.8125 24.0009 32.8125 25.0001C32.8125 25.9992 32.6145 26.9886 32.2297 27.9118C31.8449 28.8349 31.281 29.6737 30.57 30.3802C29.8591 31.0867 29.0151 31.6472 28.0862 32.0296C27.1573 32.4119 26.1617 32.6088 25.1562 32.6088C24.1508 32.6088 23.1552 32.4119 22.2263 32.0296C21.2974 31.6472 20.4534 31.0867 19.7425 30.3802C19.0315 29.6737 18.4676 28.8349 18.0828 27.9118C17.698 26.9886 17.5 25.9992 17.5 25.0001Z" stroke="#CCD6F6" stroke-width="2" stroke-linecap="round" stroke-linejoin="round"/>
<path d="M2.1875 40.2173C2.1875 38.1994 2.99414 36.2641 4.42996 34.8372C5.86579 33.4103 7.81319 32.6086 9.84375 32.6086H17.5V40.2173C17.5 42.2353 16.6934 44.1706 15.2575 45.5975C13.8217 47.0244 11.8743 47.826 9.84375 47.826C7.81319 47.826 5.86579 47.0244 4.42996 45.5975C2.99414 44.1706 2.1875 42.2353 2.1875 40.2173Z" stroke="#CCD6F6" stroke-width="2" stroke-linecap="round" stroke-linejoin="round"/>
<path d="M2.1875 25.0001C2.1875 22.9821 2.99414 21.0468 4.42996 19.6199C5.86579 18.193 7.81319 17.3914 9.84375 17.3914H17.5V32.6088H9.84375C7.81319 32.6088 5.86579 31.8071 4.42996 30.3802C2.99414 28.9533 2.1875 27.018 2.1875 25.0001Z" stroke="#CCD6F6" stroke-width="2" stroke-linecap="round" stroke-linejoin="round"/>
</svg>
