<svg width="57" height="52" viewBox="0 0 57 52" fill="none" xmlns="http://www.w3.org/2000/svg">
<path d="M36.4546 25.9998C36.4546 26.6628 36.7419 27.2987 37.2534 27.7676C37.7649 28.2364 38.4585 28.4998 39.1819 28.4998C39.9052 28.4998 40.5989 28.2364 41.1103 27.7676C41.6218 27.2987 41.9091 26.6628 41.9091 25.9998C41.9091 25.3367 41.6218 24.7008 41.1103 24.232C40.5989 23.7632 39.9052 23.4998 39.1819 23.4998C38.4585 23.4998 37.7649 23.7632 37.2534 24.232C36.7419 24.7008 36.4546 25.3367 36.4546 25.9998Z" stroke="#CCD6F6" stroke-width="2" stroke-linecap="round" stroke-linejoin="round"/>
<path d="M25.5454 15.9998C25.5454 16.6628 25.8327 17.2987 26.3442 17.7676C26.8557 18.2364 27.5494 18.4998 28.2727 18.4998C28.996 18.4998 29.6897 18.2364 30.2012 17.7676C30.7126 17.2987 31 16.6628 31 15.9998C31 15.3367 30.7126 14.7008 30.2012 14.232C29.6897 13.7632 28.996 13.4998 28.2727 13.4998C27.5494 13.4998 26.8557 13.7632 26.3442 14.232C25.8327 14.7008 25.5454 15.3367 25.5454 15.9998Z" stroke="#CCD6F6" stroke-width="2" stroke-linecap="round" stroke-linejoin="round"/>
<path d="M25.5454 35.9998C25.5454 36.6628 25.8327 37.2987 26.3442 37.7676C26.8557 38.2364 27.5494 38.4998 28.2727 38.4998C28.996 38.4998 29.6897 38.2364 30.2012 37.7676C30.7126 37.2987 31 36.6628 31 35.9998C31 35.3367 30.7126 34.7008 30.2012 34.232C29.6897 33.7632 28.996 33.4998 28.2727 33.4998C27.5494 33.4998 26.8557 33.7632 26.3442 34.232C25.8327 34.7008 25.5454 35.3367 25.5454 35.9998Z" stroke="#CCD6F6" stroke-width="2" stroke-linecap="round" stroke-linejoin="round"/>
<path d="M28.2727 33.4999V18.4998" stroke="#CCD6F6" stroke-width="2" stroke-linecap="round" stroke-linejoin="round"/>
<path d="M36.4545 23.4998L31 18.4998" stroke="#CCD6F6" stroke-width="2" stroke-linecap="round" stroke-linejoin="round"/>
<path d="M25.5456 13.4997L20.3638 8.74963" stroke="#CCD6F6" stroke-width="2" stroke-linecap="round" stroke-linejoin="round"/>
<path d="M32.2162 2.49984L53.9116 22.385C54.9575 23.3438 55.5451 24.6441 55.5451 26C55.5451 27.3559 54.9575 28.6562 53.9116 29.615L32.2162 49.5027C31.1702 50.4614 29.7517 51 28.2725 51C26.7934 51 25.3748 50.4614 24.3289 49.5027L2.63345 29.615C1.58757 28.6562 1 27.3559 1 26C1 24.6441 1.58757 23.3438 2.63345 22.385L24.3289 2.49734C25.3748 1.53861 26.7934 1 28.2725 1C29.7517 1 31.1702 1.54111 32.2162 2.49984Z" stroke="#CCD6F6" stroke-width="2" stroke-linecap="round" stroke-linejoin="round"/>
</svg>
