<svg width="41" height="40" viewBox="0 0 41 40" fill="none" xmlns="http://www.w3.org/2000/svg">
<path fill-rule="evenodd" clip-rule="evenodd" d="M20.4981 0C9.17933 0 0 9.1809 0 20.5068C0 29.5656 5.87332 37.2522 14.0195 39.9649C15.0451 40.1524 15.4189 39.5194 15.4189 38.9755C15.4189 38.4882 15.4013 37.1993 15.3912 35.4884C9.68904 36.7272 8.48593 32.7391 8.48593 32.7391C7.55339 30.37 6.20935 29.7393 6.20935 29.7393C4.34806 28.4679 6.35031 28.4931 6.35031 28.4931C8.40791 28.6379 9.4902 30.6068 9.4902 30.6068C11.3188 33.7398 14.2888 32.8347 15.4567 32.3098C15.6429 30.9855 16.1727 30.0815 16.7579 29.5693C12.206 29.0506 7.42001 27.2921 7.42001 19.4343C7.42001 17.1948 8.21914 15.3657 9.53046 13.9318C9.31905 13.4132 8.61557 11.3285 9.73182 8.50485C9.73182 8.50485 11.4521 7.95344 15.3686 10.6059C17.0033 10.1514 18.7576 9.92483 20.5006 9.91601C22.2424 9.92483 23.9954 10.1514 25.6327 10.6059C29.5466 7.95344 31.2643 8.50485 31.2643 8.50485C32.3832 11.3285 31.6797 13.4132 31.4696 13.9318C32.7833 15.3657 33.5762 17.1948 33.5762 19.4343C33.5762 27.3122 28.7826 29.0458 24.2169 29.5529C24.9519 30.1862 25.6076 31.4375 25.6076 33.3509C25.6076 36.0914 25.5824 38.3032 25.5824 38.9755C25.5824 39.5243 25.9524 40.1626 26.9919 39.9624C35.1316 37.2445 41 29.5642 41 20.5068C41 9.1809 31.8205 0 20.4981 0Z" fill="#3B82F6"/>
</svg>
