<svg width="44" height="44" viewBox="0 0 44 44" fill="none" xmlns="http://www.w3.org/2000/svg">
<path d="M32 2H12C6.47715 2 2 6.47715 2 12V32C2 37.5228 6.47715 42 12 42H32C37.5228 42 42 37.5228 42 32V12C42 6.47715 37.5228 2 32 2Z" stroke="#3B82F6" stroke-width="4" stroke-linecap="round" stroke-linejoin="round"/>
<path d="M30.0009 20.7406C30.2477 22.4051 29.9634 24.105 29.1884 25.5986C28.4134 27.0922 27.1872 28.3034 25.6841 29.0599C24.1811 29.8165 22.4778 30.0798 20.8165 29.8125C19.1551 29.5451 17.6204 28.7608 16.4306 27.5709C15.2407 26.3811 14.4563 24.8464 14.189 23.185C13.9217 21.5237 14.185 19.8204 14.9415 18.3174C15.6981 16.8143 16.9093 15.5881 18.4028 14.8131C19.8964 14.0381 21.5964 13.7538 23.2609 14.0006C24.9587 14.2524 26.5306 15.0435 27.7443 16.2572C28.958 17.4709 29.7491 19.0428 30.0009 20.7406Z" stroke="#3B82F6" stroke-width="4" stroke-linecap="round" stroke-linejoin="round"/>
<path d="M33.001 10.999H33.021" stroke="#3B82F6" stroke-width="4" stroke-linecap="round" stroke-linejoin="round"/>
</svg>
