<svg width="50" height="50" viewBox="0 0 50 50" fill="none" xmlns="http://www.w3.org/2000/svg">
<path d="M23.3628 0.0134587C23.2553 0.0232337 22.913 0.0574336 22.605 0.0818586C15.5034 0.722034 8.8514 4.55334 4.63832 10.442C2.29227 13.7162 0.7918 17.4302 0.224825 21.3642C0.0244501 22.7375 0 23.143 0 25.005C0 26.8667 0.0244501 27.2725 0.224825 28.6457C1.58358 38.0332 8.26492 45.9207 17.3265 48.843C18.9492 49.366 20.6597 49.7227 22.605 49.9377C23.3627 50.0207 26.6373 50.0207 27.395 49.9377C30.7528 49.5662 33.5973 48.7355 36.4027 47.3037C36.8327 47.0837 36.916 47.0252 36.8573 46.9762C36.8183 46.947 34.9852 44.4887 32.786 41.5177L28.788 36.1177L23.7782 28.7042C21.0215 24.6287 18.7537 21.2957 18.7341 21.2957C18.7145 21.291 18.695 24.5847 18.6852 28.6065C18.6705 35.6485 18.6657 35.932 18.5777 36.098C18.4506 36.3375 18.3529 36.4352 18.1476 36.5427C17.9912 36.621 17.8544 36.6357 17.1163 36.6357H16.2708L16.0459 36.494C15.8993 36.4012 15.7918 36.279 15.7185 36.1372L15.6158 35.9172L15.6256 26.119L15.6403 16.316L15.7918 16.1255C15.87 16.0228 16.0362 15.8909 16.1534 15.8273C16.3538 15.7296 16.432 15.7198 17.2776 15.7198C18.2747 15.7198 18.4408 15.7589 18.6999 16.0423C18.7732 16.1205 21.4858 20.206 24.7313 25.127C27.9765 30.0482 32.4145 36.7675 34.5942 40.0662L38.5533 46.0625L38.7537 45.9305C40.528 44.7772 42.4048 43.1352 43.8905 41.4247C47.0527 37.7937 49.091 33.3662 49.7753 28.6457C49.9755 27.2725 50 26.8667 50 25.005C50 23.143 49.9755 22.7375 49.7753 21.3642C48.4165 11.9765 41.735 4.08909 32.6735 1.16676C31.0752 0.648735 29.3745 0.292009 27.4683 0.0769842C26.999 0.0281091 23.7683 -0.0256413 23.3628 0.0134587ZM33.5973 15.1334C33.832 15.2507 34.0225 15.4755 34.091 15.7101C34.13 15.8371 34.1398 18.5542 34.13 24.6775L34.1152 33.464L32.566 31.089L31.0118 28.714V22.327C31.0118 18.1975 31.0312 15.8762 31.0605 15.7638C31.1388 15.4902 31.3097 15.2752 31.5445 15.148C31.7447 15.0455 31.8182 15.0357 32.5855 15.0357C33.309 15.0357 33.436 15.0455 33.5973 15.1334Z" fill="#CCD6F6"/>
</svg>
