<svg width="20" height="20" viewBox="0 0 20 20" fill="none" xmlns="http://www.w3.org/2000/svg">
<path d="M17.75 4.5C17.3358 4.5 17 4.16421 17 3.75V3H16.25C15.8358 3 15.5 2.66421 15.5 2.25C15.5 1.83579 15.8358 1.5 16.25 1.5H17V0.75C17 0.33579 17.3358 0 17.75 0C18.1642 0 18.5 0.33579 18.5 0.75V1.5H19.25C19.6642 1.5 20 1.83579 20 2.25C20 2.66421 19.6642 3 19.25 3H18.5V3.75C18.5 4.16421 18.1642 4.5 17.75 4.5ZM6.79875 1.72758C6.81332 1.65747 6.85192 1.59209 6.89976 1.54863C6.94519 1.50734 6.98123 1.50007 7.00122 1.50008C7.02122 1.50008 7.05721 1.50735 7.10257 1.54856C7.15032 1.59196 7.18886 1.65723 7.20341 1.72724C7.3801 2.57799 7.82808 3.88841 8.9695 5.03057C10.1109 6.17282 11.4215 6.62092 12.2725 6.79758C12.3426 6.81214 12.408 6.85074 12.4514 6.89856C12.4927 6.94399 12.5 6.98005 12.5 7.00009C12.5 7.02012 12.4927 7.05618 12.4514 7.10161C12.408 7.14945 12.3426 7.18806 12.2725 7.20263C11.4216 7.37948 10.1113 7.82787 8.9695 8.9702C7.82832 10.112 7.38044 11.4214 7.20382 12.272C7.18924 12.3423 7.15058 12.4078 7.10267 12.4513C7.05715 12.4927 7.02103 12.5 7.00095 12.5C6.98086 12.5 6.94481 12.4927 6.89942 12.4515C6.85163 12.4081 6.81306 12.3428 6.7985 12.2727C6.6216 11.4218 6.17333 10.111 5.03169 8.9689C3.8897 7.82651 2.57922 7.37861 1.7287 7.20215C1.65869 7.18762 1.59344 7.14914 1.55005 7.10148C1.50884 7.05622 1.50153 7.02028 1.50149 7.00033C1.50145 6.98035 1.50866 6.94427 1.55 6.89871C1.59352 6.85075 1.659 6.81206 1.72917 6.79749C2.58038 6.62074 3.89008 6.17257 5.03166 5.03069C6.1737 3.88835 6.62196 2.5784 6.79875 1.72758ZM7.00136 8.01086e-05C6.11765 1.08645e-07 5.48124 0.69509 5.33012 1.42242C5.19114 2.09129 4.84208 3.09873 3.97086 3.97017C3.10032 4.84093 2.09339 5.18987 1.42421 5.32882C0.69591 5.48005 -8.98839e-05 6.11798 0.00149012 7.00301C0.00307012 7.88546 0.69754 8.5201 1.42398 8.6709C2.0926 8.8096 3.10009 9.1583 3.97084 10.0294C4.84146 10.9003 5.19071 11.9085 5.3299 12.578C5.48112 13.3054 6.11757 14 7.00095 14C7.88496 14 8.5214 13.3045 8.6725 12.577C8.8113 11.9083 9.1601 10.9015 10.0304 10.0306C10.9011 9.1595 11.9086 8.8103 12.5777 8.6712C13.305 8.5201 14 7.88371 14 7.00009C14 6.11633 13.3048 5.47991 12.5773 5.32889C11.9081 5.18997 10.9006 4.84104 10.0305 3.97028C9.16 3.09919 8.811 2.09139 8.6721 1.42221C8.521 0.69491 7.88475 0.000160109 7.00136 8.01086e-05ZM7.5 14.9538V16.75C7.5 17.7165 8.2835 18.5 9.25 18.5H16.75C17.7165 18.5 18.5 17.7165 18.5 16.75V9.25C18.5 8.2835 17.7165 7.5 16.75 7.5H14.9536C14.9839 7.34049 15 7.17369 15 7.00009C15 6.63518 14.9287 6.30036 14.8046 6H16.75C18.5449 6 20 7.45507 20 9.25V16.75C20 18.5449 18.5449 20 16.75 20H9.25C7.45507 20 6 18.5449 6 16.75V14.8042C6.3006 14.9286 6.63572 15 7.00095 15C7.17424 15 7.34075 14.9839 7.5 14.9538ZM10 11.75C10 11.3358 10.3358 11 10.75 11H16.25C16.6642 11 17 11.3358 17 11.75C17 12.1642 16.6642 12.5 16.25 12.5H10.75C10.3358 12.5 10 12.1642 10 11.75ZM10.75 14C10.3358 14 10 14.3358 10 14.75C10 15.1642 10.3358 15.5 10.75 15.5H14.25C14.6642 15.5 15 15.1642 15 14.75C15 14.3358 14.6642 14 14.25 14H10.75ZM0.75 17C0.33579 17 0 17.3358 0 17.75C0 18.1642 0.33579 18.5 0.75 18.5H1.5V19.25C1.5 19.6642 1.83579 20 2.25 20C2.66421 20 3 19.6642 3 19.25V18.5H3.75C4.16421 18.5 4.5 18.1642 4.5 17.75C4.5 17.3358 4.16421 17 3.75 17H3V16.25C3 15.8358 2.66421 15.5 2.25 15.5C1.83579 15.5 1.5 15.8358 1.5 16.25V17H0.75Z" fill="#CCD6F6"/>
</svg>
