<svg width="57" height="50" viewBox="0 0 57 50" fill="none" xmlns="http://www.w3.org/2000/svg">
<path d="M46.5194 16.3719C45.8759 16.2789 45.3241 16 44.6806 15.814C44.7726 15.4422 44.7726 15.0703 44.9565 14.5124C46.2435 7.81841 45.3241 2.519 42.3824 0.65955C39.4403 -1.01394 34.6597 0.752528 29.8791 4.93626C29.5112 5.30814 28.8676 5.68005 28.5 6.23787C28.2241 5.95896 27.8565 5.68005 27.5806 5.30814C22.5242 0.752528 17.5597 -1.10692 14.4339 0.65955C11.4919 2.33307 10.5726 7.44652 11.8597 13.6757C11.9516 14.3265 12.1355 14.9773 12.2274 15.5351C11.5839 15.6281 10.8484 15.907 10.2049 16.186C4.22903 18.3243 0 21.7644 0 25.0183C0 28.5512 4.50485 32.0842 10.6645 34.1296C11.2161 34.2227 11.6758 34.5014 12.2274 34.5014C12.1355 35.1522 11.8597 35.803 11.8597 36.5469C10.6645 42.683 11.5839 47.6106 14.5258 49.2843C17.4677 51.1436 22.6161 49.2843 27.3968 44.8216C27.7644 44.4498 28.1323 44.1708 28.5921 43.7987C28.9597 44.1708 29.6032 44.7285 30.1547 45.1006C34.7515 49.2843 39.5323 50.9577 42.5662 49.2843C45.5079 47.4247 46.5194 42.2184 45.2323 35.7102C45.1403 35.3384 45.1403 34.6876 44.8644 34.1296C45.2323 34.0366 45.5079 34.0366 45.8759 33.7579C52.3112 31.8055 57 28.2723 57 24.7393C56.9079 21.8572 52.4953 18.5103 46.5194 16.3719ZM31.4421 6.88868C35.5791 3.2628 39.4403 1.96119 41.2791 2.89091C43.1176 3.91361 43.8532 8.37625 42.6579 14.2335C42.5662 14.6054 42.5662 14.8843 42.3824 15.4422C39.9 14.8843 37.5097 14.4195 34.9356 14.2335C33.5565 12.1881 31.9935 10.0497 30.3388 8.37625C30.7065 7.63248 31.0741 7.26057 31.4421 6.88868ZM18.6629 30.9685C19.2145 31.9914 19.8581 32.9212 20.5016 33.8507C18.6629 33.7579 17.0081 33.4789 15.3532 33.1071C15.721 31.5265 16.3645 29.8528 17.1919 28.1794C17.5597 29.0161 18.2032 30.1318 18.6629 30.9685ZM15.3532 17.5805C16.9161 17.2087 18.571 16.9297 20.4097 16.6508C19.7661 17.5805 19.2145 18.5103 18.7548 19.533C18.2951 20.5556 17.7436 21.3923 17.1919 22.508C16.3645 20.7415 15.9049 19.1611 15.3532 17.5805ZM18.2951 25.2973C18.9387 23.7167 19.8581 22.3221 20.7774 20.7415C21.6968 19.1611 22.6161 17.7665 23.4435 16.2789C25.0985 16.186 26.7532 16.186 28.5 16.186C30.1547 16.186 31.9935 16.2789 33.5565 16.2789C34.5676 17.6735 35.3953 19.1611 36.2226 20.5556C37.1421 21.9503 37.8774 23.5308 38.7047 25.1114C38.0612 26.692 37.1421 28.0864 36.2226 29.6669C35.3032 31.2475 34.3838 32.6422 33.5565 34.1296C31.9015 34.2227 30.2468 34.2227 28.4079 34.2227C26.5694 34.2227 24.9144 34.1296 23.3515 34.1296C22.3403 32.735 21.5129 31.2475 20.6855 29.6669C19.8581 28.0864 19.1226 26.8779 18.2951 25.2973ZM38.3371 30.9685C38.8888 29.9459 39.3485 29.0161 39.9 27.9935C40.5435 29.5741 41.1871 31.2475 41.7388 32.9212C40.0838 33.293 38.2453 33.572 36.4065 33.8507C37.1421 32.9212 37.7856 31.8983 38.3371 30.9685ZM39.9921 22.4151C39.4403 21.3923 38.9806 20.4628 38.4291 19.4399C37.8774 18.4173 37.2338 17.5805 36.7741 16.7438C38.6129 17.0227 40.2677 17.3016 41.8306 17.6735C41.2791 19.254 40.6356 20.8346 39.9921 22.4151ZM28.5 9.86381C29.6953 11.1654 30.7065 12.467 31.7176 13.8616C29.5112 13.7687 27.3047 13.7687 25.0985 13.8616C26.2935 12.3741 27.4888 11.0724 28.5 9.86381ZM15.629 2.98386C17.4677 1.96119 21.6968 3.35577 25.9259 7.44653C26.2015 7.72543 26.4774 8.00436 26.8453 8.19029C25.1903 10.0497 23.6274 12.0951 22.0645 14.0476C19.5823 14.3265 17.0081 14.6984 14.6177 15.2562C14.5258 14.6984 14.3419 14.0476 14.25 13.5827C13.2387 8.09734 13.8823 4.00656 15.629 2.98386ZM13.0548 32.5491C12.6871 32.4563 12.1355 32.2701 11.6758 32.1773C9.19356 31.5265 6.61935 30.2249 4.59677 28.6443C3.30968 27.7146 2.66612 26.5989 2.39032 25.2973C2.39032 23.2518 5.97579 20.6487 11.0323 18.7892C11.6758 18.5103 12.3194 18.4173 12.9629 18.1384C13.6984 20.6487 14.6177 22.9728 15.629 25.2973C14.7097 27.6215 13.6984 29.9459 13.0548 32.5491ZM25.8338 43.4269C23.9953 45.1006 21.8806 46.4021 19.4903 47.3319C18.2032 47.9827 16.8242 47.9827 15.629 47.4247C13.7903 46.4021 13.1468 42.4971 14.0661 37.1049C14.1581 36.4541 14.3419 35.8033 14.4339 35.2453C16.9161 35.8033 19.4903 36.1751 21.8806 36.2679C23.2597 38.3134 25.0065 40.4519 26.6612 42.3112C26.5694 42.8692 26.2015 43.1479 25.8338 43.4269ZM28.5921 40.8237C27.3968 39.5221 26.3856 38.2206 25.2824 36.8259C26.2935 36.8259 27.3047 36.9187 28.5 36.9187C29.6953 36.9187 30.7985 36.9187 31.8097 36.8259C30.7985 38.0344 29.7871 39.3363 28.5921 40.8237ZM43.1176 44.0777C43.0259 45.3793 42.3823 46.7739 41.2791 47.6106C39.4403 48.6335 35.7629 47.3316 31.7176 43.7059C31.35 43.3341 30.7985 42.962 30.3388 42.4043C31.9935 40.5447 33.5565 38.4993 34.9356 36.361C37.5097 36.2679 39.9921 35.7102 42.3824 35.1522C42.4741 35.5243 42.4741 36.082 42.6579 36.4541C43.3015 39.0573 43.3015 41.6604 43.1176 44.0777ZM45.1403 32.0842C44.8644 32.1773 44.4968 32.1773 44.1291 32.3632C43.3935 29.8528 42.2903 27.5287 41.2791 25.2042C42.2903 22.9728 43.2097 20.5556 43.9453 18.1384C44.5888 18.2313 45.1403 18.5103 45.6 18.6962C50.7485 20.5556 54.3338 23.159 54.3338 25.2042C54.4259 27.3428 50.6565 30.2249 45.1403 32.0842ZM28.5 30.3177C31.35 30.3177 33.5565 27.9935 33.5565 25.2042C33.5565 22.4151 31.2579 20.0907 28.5 20.0907C25.8338 20.0907 23.4435 22.4151 23.4435 25.2042C23.4435 27.9935 25.65 30.3177 28.5 30.3177Z" fill="#CCD6F6"/>
</svg>
