<svg width="80" height="42" viewBox="0 0 80 42" fill="none" xmlns="http://www.w3.org/2000/svg">
<path d="M40.3932 0.000293791C39.6921 -0.00572562 38.9934 0.0807785 38.3166 0.2574C37.3899 0.472726 35.9766 1.32439 35.1399 2.13106C33.7733 3.49051 33.5066 4.08828 32.9333 6.85218C32.6666 8.21163 34.3 11.448 35.7566 12.425C37.2566 13.4437 39.3732 14.0383 42.6398 14.379C47.4031 14.8932 48.7731 16.423 48.7731 21.4397C48.7731 25.8652 47.4898 27.0543 42.2398 27.5653C36.5499 28.1181 33.64 30.2456 33.0233 34.369C32.67 36.879 34.39 40.0253 36.7733 41.0891C42.1965 43.5573 47.2731 40.4528 48.3298 34.0315C49.0331 29.905 50.4031 28.7544 54.9897 28.417C60.2829 27.9895 63.0196 26.2476 64.0329 22.6739C64.9595 19.3958 63.0196 15.7416 59.7096 14.4657C58.8296 14.1251 56.7997 13.7008 55.2097 13.5305C50.2264 13.0163 48.9464 12.1679 48.4164 9.06329C47.6664 4.7664 47.3598 4.04329 45.7698 2.34639C45.0945 1.61354 44.2668 1.02592 43.3404 0.621719C42.4141 0.217519 41.41 0.0057901 40.3932 0.000293791ZM24.4434 14.0126C23.8869 14.0017 23.3309 14.0534 22.7868 14.1669C17.8902 15.1888 15.5535 20.7584 18.2868 24.7564C22.2134 30.4578 31.4333 27.8192 31.52 20.9737C31.56 17.1396 28.2534 14.0865 24.4434 14.0126ZM6.96365 28.0377C6.48472 28.0489 6.00805 28.1049 5.54034 28.2049C-1.6529 29.7346 -1.91623 39.8582 5.18701 41.6451C6.95365 42.1111 7.12698 42.1111 8.89029 41.6869C12.8602 40.6649 15.1102 37.0075 14.0536 33.3084C13.1269 30.0303 10.2403 27.9606 6.96365 28.0377ZM73.0428 28.0634C72.2661 28.0699 71.4528 28.2498 70.4295 28.5841C65.7962 30.1171 64.2096 35.3074 67.1628 39.3054C69.0195 41.8572 73.6961 42.7057 76.5627 40.9638C81.2827 38.1549 81.106 31.1391 76.2527 28.9248C74.9861 28.327 74.0428 28.0538 73.0428 28.0634Z" fill="#CCD6F6"/>
</svg>
