<svg width="50" height="50" viewBox="0 0 50 50" fill="none" xmlns="http://www.w3.org/2000/svg">
<path fill-rule="evenodd" clip-rule="evenodd" d="M43.75 0C45.4076 0 46.9973 0.65848 48.1694 1.83058C49.3415 3.00269 50 4.5924 50 6.25V43.75C50 45.4076 49.3415 46.9973 48.1694 48.1694C46.9973 49.3415 45.4076 50 43.75 50H6.25C4.5924 50 3.00269 49.3415 1.83058 48.1694C0.65848 46.9973 0 45.4076 0 43.75V6.25C0 4.5924 0.65848 3.00269 1.83058 1.83058C3.00269 0.65848 4.5924 0 6.25 0L43.75 0ZM40.1906 23.4C38.9719 23.4 37.924 23.6542 37.0469 24.1625C36.2012 24.6639 35.5145 25.3941 35.0656 26.2688C34.5787 27.2326 34.3372 28.3017 34.3625 29.3813C34.3625 30.95 34.6677 32.1812 35.2781 33.075C35.9094 33.95 36.9167 34.7125 38.3 35.3625L39.7656 36.0344C40.6781 36.4219 41.3292 36.8698 41.7188 37.3781C42.1042 37.8865 42.2969 38.5479 42.2969 39.3625C42.2969 40.3583 42.124 41.0906 41.7781 41.5594C41.4531 42.026 40.9042 42.2594 40.1312 42.2594C39.3792 42.2615 38.8094 42.0073 38.4219 41.4969C38.0344 40.9906 37.8208 40.2073 37.7812 39.1469H34.15C34.1917 41.2219 34.7104 42.8094 35.7062 43.9094C36.7042 45.0073 38.1479 45.5563 40.0375 45.5563C41.9313 45.5563 43.4073 45.0167 44.4656 43.9375C45.5219 42.8604 46.05 41.3146 46.05 39.3C46.05 37.6125 45.7042 36.2698 45.0125 35.2719C44.3208 34.274 43.2323 33.451 41.7469 32.8031L40.3438 32.1906C39.5312 31.8448 38.9521 31.4479 38.6063 31C38.2604 30.5542 38.0875 29.9542 38.0875 29.2C38.0875 28.3667 38.2594 27.7458 38.6031 27.3375C38.9719 26.9312 39.501 26.7281 40.1906 26.7281C40.9427 26.7281 41.4719 26.9719 41.7781 27.4594C42.1031 27.9469 42.2865 28.6792 42.3281 29.6562H45.8375C45.775 27.6229 45.2562 26.0771 44.2812 25.0187C43.3021 23.9396 41.9385 23.4 40.1906 23.4ZM21.875 23.7375V27.2156H25.9375V45.3125H29.7531V27.2156H33.7812V23.7375H21.875Z" fill="#CCD6F6"/>
</svg>
